<svg version="1.2" xmlns="http://www.w3.org/2000/svg" viewBox="0 0 800 800" width="256" height="256">
	<style>
		.s0 { fill: none;stroke: #0e073a;stroke-miterlimit:100;stroke-width: 25 } 
	</style>
	<g id="Carpeta 1 copy 2">
		<path id="Forma 5" class="s0" d="m271.71 180.05c0 0 323.12-280.14 309.37 113.58-13.76 393.73-203.26 286.96-203.26 286.96 0 0-147.84-45.08-170.38-200.27-22.54-155.19 64.27-200.27 64.27-200.27z"/>
		<path id="Capa 14" class="s0" d="m434.61 301.11c0 0 9.54-102.54 110.6-100.14 101.05 2.4 80.7 116.58 80.7 116.58 0 0-27.96 94.15-83.69 94.15-55.73 0-105.59-36.6-107.61-110.59z"/>
		<path id="Capa 15" class="s0" d="m179.04 229.37c0 0 42.71-90.11 124.05-71.74 81.34 18.37 77.72 140.49 77.72 140.49 0 0-20.62 88.97-128.53 79.21-107.91-9.77-74.93-151.17-73.24-147.96z"/>
		<path id="Forma 2" class="s0" d="m437.6 310.07l-61.28-10.46"/>
		<path id="Capa 3" class="s0" d="m280.67 423.66c0 0 104.88 109.83 189.81-4.49"/>
		<path id="Forma 4" class="s0" d="m237.33 475.97l-31.38 177.85c0 0 6.93 24.55 16.44-17.94 9.5-42.49 32.88-124.04 32.88-124.04 0 0 3.7-4.09-1.5 34.37-5.2 38.46-19.43 136-19.43 136 0 0 24.03-5.53 26.9-40.35 2.88-34.82 14.95-94.15 14.95-94.15"/>
		<path id="Capa 7" class="s0" d="m471.98 773.38l49.32-210.73c0 0 10.23-37.69 5.97 35.87-4.26 73.56-10.46 171.87-10.46 171.87"/>
		<path id="Capa 8" class="s0" d="m582.57 402.73l-31.38 367.66c0 0-12.45 41.57-8.97-68.75 3.48-110.31 2.99-236.13 2.99-236.13 0 0-7.58-17.54-16.44 85.18"/>
		<path id="Capa 9" class="s0" d="m386.79 63.47l-74.73 64.27c0 0-21.03 34.12 106.11-58.29"/>
		<path id="Capa 10" class="s0" d="m389.78 91.87l-11.96 10.46c0 0-47.06 57.72-35.87 59.78 11.19 2.06 69.58-53.36 70.24-55.29 0.66-1.94 37.46-35.73 8.97 5.97-28.49 41.71-49.23 114.86 29.89 4.49"/>
		<path id="Capa 11" class="s0" d="m461.51 82.9c0 0-24.83 89.39-10.46 80.71 14.37-8.69 49.32-68.75 49.32-68.75 0 0 13.85-20.19-16.44 94.16"/>
		<path id="Capa 12" class="s0" d="m485.43 184.53c0 0-0.39 30.13 20.92-10.46 21.3-40.6 19.43-70.24 19.43-70.24"/>
		<path id="Capa 13" class="s0" d="m346.43 73.94c0 0 60.51-96.11 136.01-26.91"/>
		<path id="Capa 5" class="s0" d="m252.28 673.25c0 0 11.64 5.36 22.42-16.44 10.77-21.81 28.39-101.63 28.39-101.63"/>
		<path id="Capa 6" class="s0" d="m288.15 626.92c0 0-12.14 75.14 10.46 20.92 22.6-54.23 14.94-44.84 14.94-44.84"/>
	</g>
</svg>